#!OML:ASF F:\VICON\USERDATA\INSTALL\rory3\rory3.ASF
:FULLY-SPECIFIED
:DEGREES
86
root 0.092567417225913 17.849795748116932 45.99650143817185 -4.173846943033331 -1.6544863915108894 -6.107651837655608
lfemur -21.405152312159757 -0.6185513983059656 -10.15302809923577
ltibia 53.899984504689286
lfoot 2.8888903773008314 -7.153169592161262
ltoes -20.80517005840835
rfemur -13.770193377541812 -0.4161471515501294 33.225847792078454
rtibia 33.986987903940026
rfoot -2.4933681544881434 -7.62197264673935
rtoes -0.5504751336072928
lowerback -1.0 -0.197598813671467 2.1920082389724036
upperback 0.508688474612659 0.6064318700965183 2.4036280445863305
thorax -5.726795604773026 0.3863399211575239 0.6329670839923759
lowerneck -16.65572750374592 -3.1092309011587655 -2.591153616291516
upperneck 20.1933701632498 -3.908044194191283 2.1342148172860536
head 9.090333515011421 -1.8641086011278627 0.5938539262687167
lclavicle 8.059735693873691e-15 2.1142044917596505e-14
lhumerus -29.449834851830424 5.965073365991312 81.91382585758836
lradius 27.761197003543057
lwrist 6.39548640024676
lhand -29.09881381530734 16.818973829009686
lfingers nan
lthumb -2.267523759927535 47.36323959867787
rclavicle 8.113058611023605e-15 2.1250302312655746e-14
rhumerus -29.657198003101158 -19.18845441814209 -78.85285232297242
rradius 26.547516722132325
rwrist 7.659223595553691
rhand -17.563430035138357 -1.0
rfingers nan
rthumb 8.995296305651696 -8.968231477863087
87
root 0.09610401046476835 17.821411220783713 46.17471706291622 -3.8214687790258357 -2.3990944220318444 -6.6572209069160895
lfemur -25.020723110725523 -0.2562939589221831 -9.790209532216469
ltibia 52.64240401236435
lfoot -0.8702475500109594 -4.765365746005001
ltoes -23.282203312395524
rfemur -12.700162035438039 0.30250434805859494 33.80415984972541
rtibia 34.2017734197772
rfoot -3.697098469785515 -7.8959080013274185
rtoes -0.45599017738577396
lowerback -1.0 0.23288126973770373 2.9629941766988033
upperback 0.1687842496388975 1.2813856354141642 2.232500733152235
thorax -6.135199265787521 0.7192736935519848 -0.1078658711714815
lowerneck -16.169290178247838 -3.04952408657885 -2.191617225107322
upperneck 20.104110983354605 -3.840227386150577 1.7325201646517618
head 8.98899881386378 -1.8670720924798427 0.428692790471082
lclavicle -2.485063158113491e-14 -1.2289817489871058e-14
lhumerus -31.163945049938082 5.721096281552646 82.14791112818179
lradius 27.14100246058583
lwrist 7.564870235170142
lhand -26.33526713434146 20.51151720678753
lfingers nan
lthumb 0.41560548094723826 51.073003127964675
rclavicle -2.4781747609876097e-14 -1.1922420499822029e-14
rhumerus -28.451692374163397 -16.40662906914102 -80.10800744672514
rradius 28.405911755310612
rwrist 5.6231168779106495
rhand -18.216343268507337 -1.0
rfingers nan
rthumb 8.350500820691414 -9.990770071142789
88
root 0.09868941125224884 17.771089815389757 46.651810011039835 -3.4272678900337628 -3.0010319471905103 -7.001206127046274
lfemur -27.71167912330798 -0.4818540094132917 -9.50010862432334
ltibia 49.27926511393615
lfoot -3.9013785138322525 -2.080118749488963
ltoes -27.52288366798814
rfemur -11.722165426202029 0.9289695041982038 34.28171640314014
rtibia 34.92745949273277
rfoot -5.152657290533893 -8.348964358641739
rtoes -1.4652067415999315
lowerback -1.0 0.5273002484802932 3.7842872711175977
upperback 0.2011593355644944 1.859292792315563 1.9824126334621814
thorax -6.063185697418543 0.9851761428600795 -1.0053188228699061
lowerneck -16.775682063237806 -3.247734731659423 -2.131847685885889
upperneck 20.07952768316353 -4.279702206727219 1.9283328347851405
head 9.049209226153401 -1.9837719335299542 0.4407940288962359
lclavicle 1.9043482006023453e-14 5.775510634006668e-15
lhumerus -32.32590703927346 5.82073130841838 82.13126278961309
lradius 26.452953352874527
lwrist 7.321414170294708
lhand -27.54347381911167 19.209685952775043
lfingers nan
lthumb -0.7706491864796416 49.73948081676453
rclavicle 1.8891747302179537e-14 6.043534318869886e-15
rhumerus -26.302036583390624 -15.434396315278214 -80.70935462490937
rradius 29.54290992964611
rwrist 5.104244784351485
rhand -18.6844621175192 -1.0
rfingers nan
rthumb 7.864620462356659 -6.444017067328054
89
root 0.09714817681505494 17.733521151598993 47.404193281010016 -3.123036774937023 -3.4062088100588834 -7.092308144900226
lfemur -29.488556039338206 -1.402195759064076 -9.274043596899384
ltibia 43.17567064611836
lfoot -4.481822499877193 0.6210142752128425
ltoes -20.650603177799333
rfemur -10.287902786744555 1.9038476214559232 34.51429254559901
rtibia 34.892856674726985
rfoot -5.947645720863784 -9.746315082121004
rtoes -1.4697361750992282
lowerback -1.0 0.7227221809525899 4.119748299961629
upperback 0.11635446272326555 2.2443920904722745 1.8321089898081102
thorax -6.206747140503196 1.1741066371220676 -1.4702407939767987
lowerneck -16.546501164841608 -3.271638375546522 -2.338899622038536
upperneck 19.725540357088782 -4.290638478419242 2.0726783886151057
head 8.881445170816049 -1.9889637364988615 0.5185180339009229
lclavicle -1.0530521745725856e-14 -2.468828076554839e-15
lhumerus -33.93454711037281 6.13994832611088 82.1206144028246
lradius 26.620731323114946
lwrist 7.016933645201632
lhand -31.73028057688694 11.0382095597882
lfingers nan
lthumb -4.855505455299493 41.38509178030784
rclavicle -1.0883673625574252e-14 -2.2822849034321097e-15
rhumerus -23.8533995953544 -13.839941917136862 -81.22993766217189
rradius 29.737599723941695
rwrist 3.63050421309633
rhand -19.65688225777518 -1.0
rfingers nan
rthumb 6.945880406081541 -6.048534542538599
90
root 0.11504501590022065 17.716596595804724 47.50910016741966 -2.5087985186393658 -3.5483277999768457 -7.31293672614184
lfemur -30.26040910355014 -3.0817863616309857 -8.247276743539288
ltibia 34.42059006938346
lfoot -4.61233905961973 3.3510307751317745
ltoes -24.268413226781583
rfemur -8.684316558825532 2.54421382724727 34.9786117810278
rtibia 33.95904767195747
rfoot -5.600183340542944 -10.376966689393086
rtoes 1.8323448968602616
lowerback -1.0 0.8095092370179812 4.786765632127455
upperback -0.05406572633969032 2.5494054077110455 1.6949304034233807
thorax -6.244459031937815 1.3109416587585354 -2.1144515411367983
lowerneck -16.889712703903456 -3.3651471163613524 -2.2593749595317965
upperneck 19.697710526420206 -4.476005774078023 2.0733443337390662
head 8.916008722089643 -2.0495909709749243 0.4854072650024194
lclavicle 1.4599657060255286e-14 -7.821981776523264e-15
lhumerus -34.96043601152277 6.414473585569851 82.01883484881478
lradius 26.1150814086591
lwrist 8.533170090885157
lhand -28.063785774076305 21.055745834110994
lfingers nan
lthumb -1.3153733910196135 51.36641898824056
rclavicle 1.4263227881608847e-14 -7.82988224206031e-15
rhumerus -22.3344432830375 -12.79488396151082 -81.57947072341629
rradius 31.487748587262534
rwrist 2.522121563618203
rhand -19.480798323391145 -1.0
rfingers nan
rthumb 7.122783673243965 -6.001935759402194
91
root 0.1404496871305263 17.707956878939942 47.2342654211358 -1.9030904163358655 -3.9919151112057465 -7.345360806822283
lfemur -29.314641269974814 -5.146871611987837 -7.357824140327116
ltibia 23.279609391564527
lfoot -2.3614266587806663 2.4587102297035557
ltoes -17.703347368780463
rfemur -6.523929529305602 2.894608655282795 34.75686593312197
rtibia 32.3237958286242
rfoot -6.121577291604409 -10.234802126669809
rtoes -0.30512371812072914
lowerback -1.0 1.016400168783464 4.87462624777025
upperback -0.11113411235397831 2.946078104970635 1.6003086904588706
thorax -6.008753720454349 1.480078134972416 -2.349450986874605
lowerneck -17.104363108328158 -3.411688523320967 -2.348871273815432
upperneck 19.55575571157881 -4.48840280831081 2.0868069335164074
head 8.876864959943067 -2.0635048084106695 0.49291116702861315
lclavicle 1.7555837225302624e-15 7.984582509252133e-15
lhumerus -35.67044677984396 8.22760983163517 81.3103123783723
lradius 25.19967744098169
lwrist 8.257093115823363
lhand -27.01077632283147 23.229490374799138
lfingers nan
lthumb -0.3359537464424056 53.48448964577693
rclavicle 1.588044072400415e-15 8.280767284864542e-15
rhumerus -20.699967574278983 -12.011932763821974 -81.72330690145291
rradius 33.03606878005064
rwrist 1.653679404210163
rhand -19.05438990771597 -1.0
rfingers nan
rthumb 7.530563118104615 -5.906954064792559
92
root 0.16621144524352105 17.67871133912135 47.62449020365818 -1.4391516866316023 -4.1614587391709685 -7.453045691740937
lfemur -27.69062258457906 -7.318408196567173 -6.235505508547384
ltibia 11.839026251033836
lfoot -1.87346140288461 1.2121670216696883
ltoes -16.14283314113785
rfemur -3.8962709984835726 2.389231205853642 34.64029512741635
rtibia 30.21001363118708
rfoot -6.508479777381174 -10.07107440836975
rtoes -1.218137818159157
lowerback -1.0 1.13910874757511 5.081724935058874
upperback -0.23777511629709452 3.1741044001374226 1.5881709889249676
thorax -5.9257754094881765 1.5921004128224794 -2.484121736211234
lowerneck -17.507457598483377 -3.4196196750081884 -2.4026940336085367
upperneck 19.595132393352245 -4.4622761626402685 2.0501902988817546
head 8.935343820173813 -2.057222228107425 0.4847079698723529
lclavicle -1.9057146076747996e-14 -9.456897860767672e-15
lhumerus -36.47865388345803 10.143069743595412 80.29238811135976
lradius 24.303037075145305
lwrist 7.449657518658536
lhand -28.538495968529975 20.374079055431963
lfingers nan
lthumb -1.8237885408340762 50.575783741013275
rclavicle -1.9830636873654865e-14 -9.351511100693084e-15
rhumerus -19.636223929713438 -11.710023510267524 -81.77596376481826
rradius 34.39371098339223
rwrist 1.2374184886768291
rhand -19.27367050270662 -1.0
rfingers nan
rthumb 7.329896633696507 -5.615158462987559
93
root 0.19307991975498773 17.624402380780626 47.76554041477638 -1.186569422290744 -4.752302768337665 -7.597139783261968
lfemur -24.95014328754542 -9.513155658306529 -5.1998598111365055
ltibia 2.4527059179184896
lfoot -2.584233508555502 1.956008193926988
ltoes -20.234015011880146
rfemur -0.9248979826165762 1.8423223041197874 34.63140561742412
rtibia 27.917003032418222
rfoot -6.17206927688245 -10.01578813882669
rtoes -10.267723484408116
lowerback -1.0 1.4243221143947715 5.312531123083431
upperback -0.3172964131381233 3.6121948602110905 1.65429612180825
thorax -5.74257645404938 1.810019601498792 -2.6370895837282884
lowerneck -17.343072996134822 -3.507463561215645 -2.215724248005925
upperneck 19.649641363300837 -4.639685709864384 1.9277126888549025
head 8.932446605626849 -2.1297431430384934 0.411302216117386
lclavicle -5.19993433065817e-16 1.8499948388380855e-14
lhumerus -37.33853488460336 11.42848746905752 79.28227414103107
lradius 23.02185908357921
lwrist 7.218647156365355
lhand -29.032695444965217 18.69755868474164
lfingers nan
lthumb -2.281501715133298 48.95006080408122
rclavicle -1.1752837335666955e-15 1.887650314991546e-14
rhumerus -19.45139701047428 -11.358802423420807 -81.87814710187575
rradius 36.04299134030384
rwrist 0.04852365030377159
rhand -19.449533641229646 -1.0
rfingers nan
rthumb 7.1650403277612735 -5.5129409649094345
